<?xml version="1.0" encoding="utf-8"?>
<svg viewBox="299.145 1376.065 2512.814 385.565" xmlns="http://www.w3.org/2000/svg">
  <path opacity="1.000000" stroke="none" d=" M1269.232666,1671.671631 C1257.395264,1671.684937 1246.491577,1671.684937 1235.244263,1671.684937 C1234.586182,1667.190796 1234.076050,1663.706299 1233.436157,1659.335693 C1230.892212,1660.467285 1228.647705,1661.016602 1226.950806,1662.293457 C1216.349609,1670.270752 1204.475830,1673.376099 1191.328247,1672.384521 C1180.768433,1671.588135 1169.995605,1672.108521 1159.660034,1670.194092 C1144.046753,1667.302002 1136.205811,1656.031250 1133.826782,1640.988037 C1132.693970,1633.825073 1132.434082,1626.472168 1132.376587,1619.200684 C1132.199951,1596.882935 1132.205566,1574.562134 1132.375732,1552.244385 C1132.428711,1545.305908 1133.109619,1538.362427 1133.717041,1531.439941 C1135.162720,1514.968872 1149.047974,1502.660034 1163.734497,1501.741455 C1175.647827,1500.996216 1187.607544,1500.222290 1199.520752,1500.515869 C1207.424316,1500.710449 1215.232666,1502.782593 1221.957642,1507.684204 C1224.548462,1509.572510 1227.595337,1510.835083 1231.512695,1512.970581 C1231.512695,1487.667603 1231.512695,1463.458984 1231.512695,1438.791382 C1245.761475,1438.791382 1259.209473,1438.791382 1273.687622,1438.791382 C1273.687622,1442.150024 1273.687622,1445.052368 1273.687622,1447.954712 C1273.687622,1519.242554 1273.737671,1590.530396 1273.526001,1661.817627 C1273.516357,1665.067017 1276.599609,1670.260132 1269.232666,1671.671631 M1175.670776,1549.647949 C1175.670776,1574.226440 1175.617798,1598.804932 1175.698486,1623.383179 C1175.728149,1632.450195 1178.475098,1635.025024 1187.379028,1635.700562 C1197.986816,1636.505371 1207.764648,1634.759277 1216.360596,1627.964355 C1221.271118,1624.082642 1226.493774,1620.595581 1231.402832,1617.055420 C1231.402832,1596.052368 1231.402832,1575.497314 1231.402832,1554.880005 C1227.098877,1552.050781 1222.619385,1549.705078 1218.855957,1546.514771 C1209.281128,1538.398315 1198.208984,1536.687744 1186.227905,1537.630371 C1178.687744,1538.223511 1177.530640,1539.136963 1175.670776,1549.647949 z" style="fill: rgb(255, 255, 255); fill-rule: nonzero;"/>
  <path opacity="1.000000" stroke="none" d=" M1602.357910,1674.086670 C1602.357788,1694.347290 1602.357788,1713.619995 1602.357788,1733.284912 C1588.406372,1733.284912 1575.180176,1733.284912 1561.935303,1733.284912 C1559.929810,1726.616943 1559.143433,1518.314697 1561.123657,1502.022217 C1573.004761,1502.022217 1584.941772,1502.022217 1597.836426,1502.022217 C1598.752441,1505.575073 1599.777100,1509.548584 1600.979248,1514.210693 C1605.293701,1511.718994 1609.019165,1508.861328 1613.225586,1507.294312 C1620.589111,1504.551147 1628.153198,1501.151855 1635.804565,1500.652222 C1647.642822,1499.879272 1659.682495,1500.751221 1671.531982,1501.956055 C1685.927734,1503.419800 1697.317505,1514.574463 1699.786377,1528.856934 C1700.909180,1535.351196 1701.548462,1542.005615 1701.602905,1548.594238 C1701.808960,1573.562866 1701.828491,1598.535400 1701.593140,1623.503540 C1701.527954,1630.424194 1701.045898,1637.493530 1699.530029,1644.218628 C1695.459351,1662.279053 1683.168213,1670.739746 1665.381348,1672.177734 C1654.465698,1673.060181 1643.327637,1673.202393 1632.467041,1672.030640 C1625.464355,1671.275146 1618.716919,1667.704956 1611.990723,1665.052246 C1609.323975,1664.000610 1607.024292,1662.018311 1602.911499,1659.419800 C1602.685913,1664.991943 1602.521973,1669.045410 1602.357910,1674.086670 M1657.136353,1631.221191 C1657.534546,1627.965942 1658.240356,1624.714111 1658.276367,1621.454834 C1658.412598,1609.157471 1658.331421,1596.857666 1658.331177,1584.558838 C1658.331055,1572.592407 1658.449097,1560.624268 1658.289062,1548.659912 C1658.179321,1540.455933 1655.627441,1538.286011 1647.634521,1537.611450 C1635.953491,1536.625366 1625.247437,1538.640137 1615.753296,1545.971191 C1611.564087,1549.205688 1606.998291,1551.952393 1602.530273,1554.969971 C1602.530273,1575.683838 1602.530273,1596.272095 1602.530273,1617.339355 C1609.215576,1621.967773 1615.704102,1627.195679 1622.860840,1631.241577 C1633.461548,1637.234375 1644.679321,1638.198364 1657.136353,1631.221191 z" style="fill: rgb(255, 255, 255); fill-rule: nonzero;"/>
  <path opacity="1.000000" stroke="none" d=" M2092.306885,1641.987305 C2092.306885,1573.756714 2092.306885,1506.524048 2092.306885,1438.801758 C2106.837402,1438.801758 2120.371826,1438.801758 2134.508057,1438.801758 C2136.882812,1446.566772 2135.394043,1454.541992 2135.635254,1462.364136 C2135.892090,1470.689087 2135.693115,1479.028198 2135.693115,1487.361084 C2135.693115,1495.294312 2135.693115,1503.227539 2135.693115,1512.295776 C2138.824951,1510.626709 2141.174805,1509.632812 2143.244385,1508.226562 C2151.811768,1502.406250 2161.383057,1500.141602 2171.547119,1500.357910 C2181.490967,1500.569458 2191.495850,1500.605103 2201.350586,1501.766357 C2220.816650,1504.060181 2233.336182,1516.816772 2233.521729,1536.039795 C2233.949219,1580.352905 2233.479004,1624.674683 2233.358887,1668.992920 C2233.358154,1669.303955 2233.155518,1669.614502 2232.865967,1670.443848 C2226.461182,1673.098145 2219.437012,1671.312988 2212.615967,1671.626831 C2205.980957,1671.932007 2199.320801,1671.692871 2191.635010,1671.692871 C2191.635010,1667.654053 2191.635010,1664.079102 2191.635010,1660.504150 C2191.635254,1625.505737 2191.635742,1590.507446 2191.633789,1555.509033 C2191.633545,1553.175903 2191.825928,1550.818848 2191.565186,1548.514038 C2190.691162,1540.794678 2187.730225,1538.332642 2180.028809,1537.643799 C2168.328857,1536.597290 2157.602783,1538.614868 2148.111328,1546.010498 C2144.205322,1549.054443 2139.890137,1551.573608 2135.302979,1554.637207 C2135.302979,1593.245972 2135.302979,1631.812012 2135.302979,1671.029053 C2120.843994,1671.029053 2107.073975,1671.029053 2092.306885,1671.029053 C2092.306885,1661.478760 2092.306885,1652.231934 2092.306885,1641.987305 z" style="fill: rgb(255, 255, 255); fill-rule: nonzero;"/>
  <path opacity="1.000000" stroke="none" d=" M917.304565,1518.984131 C921.950989,1528.081665 923.803772,1536.975220 923.759094,1546.500977 C923.580994,1584.469971 923.685669,1622.440430 923.685669,1660.410278 C923.685669,1663.700684 923.685669,1666.991089 923.685669,1670.982178 C911.012573,1670.982178 898.894958,1670.982178 886.528625,1670.982178 C885.608032,1666.941284 884.679199,1662.864380 883.611572,1658.178101 C882.012756,1659.043457 880.760986,1659.481079 879.803955,1660.274292 C859.261841,1677.304688 835.505554,1674.028809 812.256409,1669.821777 C797.082947,1667.075928 788.781372,1655.894775 787.791748,1639.900269 C787.039795,1627.746704 787.068726,1615.466431 787.885620,1603.318970 C788.536865,1593.635376 793.440308,1585.960815 802.308777,1580.806641 C811.150513,1575.668091 820.597290,1573.305054 830.570862,1572.129761 C847.298035,1570.158325 864.002869,1567.997559 881.634705,1565.802124 C881.634705,1558.702271 881.596985,1551.830200 881.647034,1544.958862 C881.684570,1539.817139 879.000671,1536.301025 874.195557,1535.962524 C863.669739,1535.220947 853.025330,1534.471924 842.547180,1535.270508 C833.908386,1535.928955 832.139771,1539.051758 831.707458,1547.825806 C831.578552,1550.441895 831.687561,1553.069702 831.687561,1556.014160 C817.724609,1556.014160 804.468628,1556.014160 790.802795,1556.014160 C789.737854,1546.118286 790.096558,1536.709106 793.025024,1527.399292 C797.579102,1512.921631 807.757080,1504.747681 822.203430,1502.015015 C829.308289,1500.670898 836.701843,1500.357422 843.958252,1500.413696 C858.888000,1500.529419 873.838196,1500.821899 888.732849,1501.776245 C900.649963,1502.539673 910.182678,1508.302246 917.304565,1518.984131 M864.254150,1633.685791 C868.673340,1630.752075 873.267517,1628.041992 877.431824,1624.782471 C879.285278,1623.331909 881.272156,1620.862427 881.462463,1618.702393 C882.003967,1612.557861 881.652527,1606.334595 881.652527,1599.139526 C866.033386,1601.418945 851.701416,1603.435059 837.405090,1605.678223 C835.250244,1606.016235 832.862671,1606.971680 831.274109,1608.406738 C827.216736,1612.072021 826.827209,1630.852051 830.738159,1634.843994 C832.253296,1636.390625 834.670959,1637.744873 836.774292,1637.903320 C845.669800,1638.573853 854.700867,1639.447632 864.254150,1633.685791 z" style="fill: rgb(255, 255, 255); fill-rule: nonzero;"/>
  <path opacity="1.000000" stroke="none" d=" M1386.314209,1581.999878 C1386.314331,1568.686157 1385.899780,1556.354980 1386.414062,1544.062744 C1387.136963,1526.783447 1393.010986,1511.942139 1410.259888,1504.909668 C1416.867188,1502.215820 1424.357300,1500.784912 1431.510742,1500.514526 C1448.127197,1499.886353 1464.787476,1500.109253 1481.421631,1500.430176 C1486.986572,1500.537476 1492.702393,1501.382690 1498.042847,1502.940796 C1513.016479,1507.309448 1522.395752,1517.368896 1525.578613,1532.694458 C1526.782837,1538.493042 1527.537598,1544.489258 1527.592407,1550.403809 C1527.814941,1574.363647 1527.833496,1598.328369 1527.584839,1622.287598 C1527.520020,1628.533325 1526.724854,1634.877441 1525.386108,1640.983643 C1521.653564,1658.009521 1509.630737,1668.697632 1491.525391,1671.654785 C1488.912109,1672.081665 1486.237061,1672.311768 1483.589600,1672.320435 C1465.951172,1672.377808 1448.308228,1672.598022 1430.674805,1672.293579 C1402.928711,1671.814697 1386.437256,1654.795288 1386.324707,1626.930176 C1386.265503,1612.286987 1386.314209,1597.643311 1386.314209,1581.999878 M1428.338379,1581.003906 C1428.338623,1594.667725 1428.180298,1608.334106 1428.390503,1621.994751 C1428.552734,1632.527588 1432.092896,1636.161865 1441.880615,1636.300781 C1451.543457,1636.437988 1461.211060,1636.435059 1470.873901,1636.303345 C1481.894531,1636.152954 1484.279785,1633.729736 1484.310669,1622.608276 C1484.377197,1598.613281 1484.365723,1574.617920 1484.315063,1550.622925 C1484.293335,1540.323608 1481.054077,1536.733887 1470.905396,1536.401123 C1461.583862,1536.095337 1452.240356,1536.154663 1442.914307,1536.380005 C1432.376953,1536.634399 1428.628662,1540.418091 1428.384155,1551.013062 C1428.168945,1560.339600 1428.338623,1569.674927 1428.338379,1581.003906 z" style="fill: rgb(255, 255, 255); fill-rule: nonzero;"/>
  <path opacity="1.000000" stroke="none" d=" M2292.855957,1669.819458 C2275.773926,1663.227417 2267.897217,1650.648804 2266.361084,1633.787598 C2265.668945,1626.190552 2265.713623,1618.513428 2265.684082,1610.871582 C2265.601807,1589.570679 2265.500977,1568.267700 2265.714355,1546.968628 C2265.839600,1534.475952 2268.070557,1522.674438 2277.332275,1513.041748 C2286.630859,1503.370972 2298.523438,1500.923340 2310.881348,1500.471802 C2327.168457,1499.876465 2343.500244,1500.054932 2359.798828,1500.462769 C2366.005371,1500.618042 2372.396240,1501.615234 2378.316650,1503.465210 C2396.894287,1509.270264 2405.649902,1523.316040 2406.113770,1541.785400 C2406.865479,1571.719971 2406.941406,1601.707886 2406.045410,1631.635742 C2405.354248,1654.716431 2390.108887,1670.519165 2367.207520,1671.796021 C2345.988281,1672.979248 2324.647705,1672.081665 2303.362305,1671.884644 C2300.118164,1671.854614 2296.884277,1670.658447 2292.855957,1669.819458 M2311.470459,1633.784058 C2314.622070,1634.635376 2317.753418,1636.118896 2320.928955,1636.220581 C2330.897461,1636.539917 2340.885254,1636.498779 2350.859619,1636.294922 C2361.054688,1636.086548 2363.631348,1633.328979 2363.654785,1622.966797 C2363.709473,1598.686035 2363.707031,1574.404907 2363.656006,1550.124146 C2363.634033,1539.609009 2360.745117,1536.618408 2350.051270,1536.365601 C2341.075439,1536.153320 2332.089844,1536.228027 2323.110596,1536.344360 C2311.474365,1536.495239 2308.372070,1539.598145 2308.344727,1551.155151 C2308.287598,1575.103271 2308.257080,1599.052246 2308.411865,1622.999512 C2308.432373,1626.187134 2309.595215,1629.367554 2311.470459,1633.784058 z" style="fill: rgb(255, 255, 255); fill-rule: nonzero;"/>
  <path opacity="1.000000" stroke="none" d=" M958.317993,1567.999756 C958.317993,1545.694214 958.317993,1524.388672 958.317993,1502.368408 C972.108398,1502.368408 985.569336,1502.368408 999.801636,1502.368408 C999.954773,1504.301147 1000.325806,1506.822754 1000.328491,1509.344604 C1000.366211,1545.321289 1000.348755,1581.297852 1000.363953,1617.274536 C1000.365173,1620.268311 1000.090271,1623.346191 1000.674438,1626.237183 C1001.663818,1631.133789 1004.492981,1635.066650 1009.793457,1635.498413 C1018.779602,1636.229980 1027.787231,1636.243408 1035.761841,1630.871338 C1040.448486,1627.713989 1045.057373,1624.421143 1049.899170,1621.519531 C1054.400269,1618.822021 1055.812012,1615.267944 1055.771606,1609.995605 C1055.521240,1577.352173 1055.645630,1544.705688 1055.645630,1512.060303 C1055.645630,1509.063721 1055.645630,1506.067261 1055.645630,1502.361572 C1069.525879,1502.361572 1083.286743,1502.361572 1097.370361,1502.361572 C1097.370361,1558.351562 1097.370361,1614.248047 1097.370361,1671.287720 C1085.144043,1672.105225 1072.974121,1671.486328 1060.105591,1671.697998 C1059.179077,1667.706665 1058.305176,1663.941772 1057.151367,1658.970947 C1053.625977,1660.987305 1050.188599,1662.698364 1047.022095,1664.814453 C1039.011353,1670.168335 1030.275391,1672.624512 1020.649841,1672.385742 C1012.992920,1672.195679 1005.318176,1672.592285 997.667480,1672.302246 C972.868591,1671.362671 958.893616,1657.951782 958.404297,1632.956543 C957.987122,1611.645264 958.318054,1590.319336 958.317993,1567.999756 z" style="fill: rgb(255, 255, 255); fill-rule: nonzero;"/>
  <path opacity="1.000000" stroke="none" d=" M592.513916,1627.652466 C594.945618,1633.790527 598.861267,1635.903687 604.558350,1635.723389 C613.207764,1635.449707 621.874390,1635.773926 630.529663,1635.618286 C639.433838,1635.458252 642.134827,1632.583618 642.302795,1623.470703 C642.387329,1618.885254 642.317505,1614.296875 642.317505,1609.024170 C656.714844,1609.024170 670.149841,1609.024170 685.100464,1609.024170 C684.198120,1619.693481 683.557983,1630.220825 682.364929,1640.685181 C680.529541,1656.784302 665.318359,1671.169312 647.221497,1671.729004 C627.611450,1672.335449 607.926270,1672.806030 588.355530,1671.779785 C566.859009,1670.652344 553.744507,1657.594482 550.356140,1636.404053 C549.885986,1633.463623 549.680847,1630.450684 549.675415,1627.470825 C549.625183,1599.831543 549.543701,1572.191895 549.685791,1544.553345 C549.765137,1529.118042 554.520752,1515.751709 568.403870,1507.229614 C576.533813,1502.239380 585.773438,1500.625977 595.094910,1500.410889 C610.072021,1500.065186 625.069092,1500.072754 640.044922,1500.445557 C645.598328,1500.583740 651.260986,1501.662964 656.622375,1503.193604 C673.359497,1507.972290 681.387390,1520.350342 683.495544,1536.709595 C684.502380,1544.522217 683.668701,1552.572021 683.668701,1561.099121 C670.349304,1561.099121 656.932983,1561.099121 642.317749,1561.099121 C642.317749,1557.066040 642.390015,1553.178101 642.303162,1549.293701 C642.102844,1540.334106 639.838074,1537.869751 631.212158,1537.718384 C622.223816,1537.560547 613.229126,1537.581543 604.239929,1537.711304 C595.280762,1537.840576 592.446411,1540.640259 592.391724,1549.764648 C592.271973,1569.744141 592.352356,1589.724731 592.355286,1609.704956 C592.356140,1615.365967 592.372070,1621.027100 592.513916,1627.652466 z" style="fill: rgb(255, 255, 255); fill-rule: nonzero;"/>
  <path opacity="1.000000" stroke="none" d=" M1869.692871,1560.032715 C1869.635498,1596.648926 1869.587280,1632.271851 1869.467773,1667.894775 C1869.464844,1668.785522 1868.674072,1669.673706 1867.993652,1671.103149 C1854.983154,1671.103149 1841.800415,1671.103149 1827.882446,1671.103149 C1827.882446,1627.686890 1827.882446,1584.164429 1827.882446,1539.631348 C1819.316528,1539.631348 1811.461914,1539.631348 1802.772461,1539.631348 C1802.012939,1526.880005 1802.234497,1515.157349 1802.533081,1502.567383 C1811.374390,1502.567383 1818.908569,1502.567383 1827.637451,1502.567383 C1827.637451,1494.909912 1827.406006,1488.067993 1827.685425,1481.247070 C1828.265869,1467.071411 1832.409180,1454.487915 1844.666260,1445.865723 C1851.987183,1440.715698 1860.514282,1438.836426 1869.088379,1438.471802 C1883.032471,1437.878662 1897.020264,1438.311768 1911.676147,1438.311768 C1911.676147,1450.763428 1911.676147,1462.861206 1911.676147,1475.692871 C1901.675781,1475.692871 1891.749146,1475.617310 1881.824097,1475.713867 C1871.686035,1475.812500 1869.832642,1477.776978 1869.701904,1488.188599 C1869.647949,1492.481934 1869.692993,1496.776733 1869.692993,1502.052734 C1883.522339,1502.052734 1896.987549,1502.052734 1911.062744,1502.052734 C1911.062744,1514.815796 1911.062744,1526.609863 1911.062744,1539.409668 C1897.563477,1539.409668 1884.109009,1539.409668 1869.692871,1539.409668 C1869.692871,1546.590820 1869.692871,1552.815186 1869.692871,1560.032715 z" style="fill: rgb(255, 255, 255); fill-rule: nonzero;"/>
  <path opacity="1.000000" stroke="none" d=" M2504.748535,1591.062622 C2492.260254,1626.154175 2480.063232,1660.514526 2467.751953,1695.197510 C2454.215088,1695.197510 2441.017334,1695.197510 2426.293457,1695.197510 C2459.445312,1601.582397 2492.460205,1508.354126 2525.763184,1414.312378 C2532.564697,1414.312378 2539.124512,1414.312378 2545.684570,1414.312378 C2552.307373,1414.312378 2558.929932,1414.312378 2567.330566,1414.312378 C2546.832031,1473.939453 2525.484619,1531.979614 2504.748535,1591.062622 z" style="fill: rgb(255, 255, 255); fill-rule: nonzero;"/>
  <path opacity="1.000000" stroke="none" d=" M1736.317871,1553.999756 C1736.317871,1536.355469 1736.317871,1519.711182 1736.317871,1502.360718 C1750.116943,1502.360718 1763.581177,1502.360718 1777.804565,1502.360718 C1777.958374,1504.319824 1778.327881,1506.843384 1778.329224,1509.367310 C1778.361816,1567.337646 1778.371460,1625.307861 1778.336792,1683.278198 C1778.331421,1692.265625 1777.689941,1701.155640 1774.002441,1709.588623 C1767.116943,1725.335449 1754.534302,1732.732422 1737.994995,1733.567749 C1726.377441,1734.154541 1714.706177,1733.681274 1702.353882,1733.681274 C1702.353882,1721.886719 1702.353882,1710.419678 1702.353882,1697.652832 C1707.993896,1697.652832 1714.180054,1697.683472 1720.365723,1697.646484 C1733.132690,1697.570190 1736.306763,1694.461670 1736.311646,1681.934814 C1736.328003,1639.623169 1736.317871,1597.311523 1736.317871,1553.999756 z" style="fill: rgb(255, 255, 255); fill-rule: nonzero;"/>
  <path opacity="1.000000" stroke="none" d=" M2014.314209,1585.999756 C2014.314209,1536.468384 2014.314209,1487.937134 2014.314209,1438.862793 C2028.665283,1438.862793 2042.131592,1438.862793 2055.943359,1438.862793 C2055.943359,1516.220215 2055.943359,1593.371826 2055.943359,1671.104492 C2042.356445,1671.104492 2029.161743,1671.104492 2014.466064,1671.104492 C2014.150146,1657.260010 2014.359009,1643.101074 2014.322144,1628.953979 C2014.285767,1614.969360 2014.314209,1600.984619 2014.314209,1585.999756 z" style="fill: rgb(255, 255, 255); fill-rule: nonzero;"/>
  <path opacity="1.000000" stroke="none" d=" M713.655029,1525.999756 C713.655029,1496.431152 713.655029,1467.862671 713.655029,1438.813721 C728.009399,1438.813721 741.512634,1438.813721 755.682861,1438.813721 C755.682861,1516.042725 755.682861,1593.151978 755.682861,1670.968994 C742.199951,1670.968994 728.475647,1670.968994 713.655029,1670.968994 C713.655029,1622.731567 713.655029,1574.865723 713.655029,1525.999756 z" style="fill: rgb(255, 255, 255); fill-rule: nonzero;"/>
  <path opacity="1.000000" stroke="none" d=" M2699.028564,1527.277710 C2706.838135,1531.075317 2713.991455,1534.508911 2721.325195,1538.028931 C2721.325195,1548.541504 2721.325195,1558.786255 2721.325195,1570.571655 C2681.281494,1589.676514 2640.476807,1609.144287 2598.722168,1629.065186 C2598.722168,1615.302612 2598.722168,1603.104248 2598.722168,1589.794189 C2623.681396,1578.454468 2649.248047,1566.838623 2676.311768,1554.542725 C2670.666504,1551.670776 2666.186035,1549.173340 2661.531006,1547.061646 C2642.516357,1538.435791 2623.440430,1529.944946 2604.407715,1521.358643 C2601.450928,1520.024780 2598.180420,1519.115234 2598.254395,1514.632812 C2598.437988,1503.440796 2598.314941,1492.243530 2598.314941,1479.398804 C2632.629639,1495.693970 2665.500977,1511.303833 2699.028564,1527.277710 z" style="fill: rgb(255, 255, 255); fill-rule: nonzero;"/>
  <path opacity="1.000000" stroke="none" d=" M507.732819,1589.190918 C508.809509,1595.867676 509.426849,1602.029663 509.643677,1608.205688 C509.864899,1614.506592 509.692627,1620.821533 509.692627,1627.160767 C502.286499,1626.538696 409.451996,1583.388794 386.831604,1570.140625 C386.831604,1559.914062 386.831604,1549.366821 386.831604,1537.870483 C426.837646,1518.781372 467.426056,1499.414429 509.679565,1479.253052 C509.679565,1492.436401 509.964081,1503.918945 509.416321,1515.361572 C509.318146,1517.412354 506.130341,1520.051880 503.777313,1521.140991 C485.436981,1529.629272 466.935883,1537.769409 448.521820,1546.099731 C443.231720,1548.492798 438.063934,1551.156128 431.251404,1554.467896 C457.746185,1566.419800 482.421936,1577.551025 507.732819,1589.190918 z" style="fill: rgb(255, 255, 255); fill-rule: nonzero;"/>
  <path opacity="1.000000" stroke="none" d=" M1934.307129,1647.943359 C1934.480347,1599.327759 1934.649780,1551.700562 1934.875854,1504.073730 C1934.878418,1503.547974 1935.619629,1503.025513 1936.337402,1502.076538 C1949.550781,1502.076538 1963.072876,1502.076538 1977.144043,1502.076538 C1977.144043,1558.333618 1977.144043,1614.166504 1977.144043,1670.388916 C1970.353516,1672.995483 1963.343140,1671.340454 1956.513428,1671.631470 C1949.883545,1671.914185 1943.232300,1671.692871 1936.298828,1671.692871 C1932.572266,1664.089233 1935.085571,1656.340942 1934.307129,1647.943359 z" style="fill: rgb(255, 255, 255); fill-rule: nonzero;"/>
  <path opacity="1.000000" stroke="none" d=" M1352.358154,1509.100830 C1352.358032,1563.539917 1352.358032,1617.087280 1352.358032,1671.094727 C1338.329346,1671.094727 1324.933960,1671.094727 1310.927734,1671.094727 C1310.927734,1614.464233 1310.927734,1558.421875 1310.927734,1502.012939 C1324.385132,1502.012939 1337.657837,1502.012939 1351.643677,1502.012939 C1351.858643,1503.877441 1352.108398,1506.043335 1352.358154,1509.100830 z" style="fill: rgb(255, 255, 255); fill-rule: nonzero;"/>
  <path opacity="1.000000" stroke="none" d=" M1954.060913,1438.307129 C1962.334106,1438.307129 1969.632690,1438.307129 1977.646973,1438.307129 C1977.646973,1452.083008 1977.646973,1465.520386 1977.646973,1479.663330 C1963.831177,1479.663330 1949.421875,1479.663330 1934.654907,1479.663330 C1934.654907,1466.362061 1934.654907,1453.139893 1934.654907,1438.436523 C1940.791382,1438.393433 1946.938843,1438.350220 1954.060913,1438.307129 z" style="fill: rgb(255, 255, 255); fill-rule: nonzero;"/>
  <path opacity="1.000000" stroke="none" d=" M1353.692871,1471.400146 C1353.692749,1474.635376 1353.692749,1476.945923 1353.692749,1479.807251 C1339.103149,1479.807251 1324.938965,1479.807251 1310.201660,1479.807251 C1310.201660,1466.520386 1310.201660,1453.045898 1310.201660,1438.936035 C1324.237549,1438.936035 1338.301147,1438.936035 1353.692871,1438.936035 C1353.692871,1449.459106 1353.692871,1459.967285 1353.692871,1471.400146 z" style="fill: rgb(255, 255, 255); fill-rule: nonzero;"/>
  <path opacity="1.000000" stroke="none" d=" M1777.588135,1479.614136 C1763.442749,1480.212402 1749.906616,1480.212402 1736.018555,1480.212402 C1736.018555,1466.081543 1736.018555,1452.584473 1736.018555,1438.702637 C1749.916382,1438.702637 1763.448120,1438.702637 1778.197266,1438.702637 C1778.197266,1452.111572 1778.197266,1465.563721 1777.588135,1479.614136 z" style="fill: rgb(255, 255, 255); fill-rule: nonzero;"/>
</svg>